<?xml version="1.0" standalone="no"?>
<!DOCTYPE svg PUBLIC "-//W3C//DTD SVG 20010904//EN"
 "http://www.w3.org/TR/2001/REC-SVG-20010904/DTD/svg10.dtd">
<svg version="1.0" xmlns="http://www.w3.org/2000/svg"
 width="95.000000pt" height="105.000000pt" viewBox="0 0 95.000000 105.000000"
 preserveAspectRatio="xMidYMid meet">
<metadata>
Created by potrace 1.10, written by Peter Selinger 2001-2011
</metadata>
<g transform="translate(0.000000,105.000000) scale(0.100000,-0.100000)"
fill="#000000" stroke="none">
<path d="M592 989 c32 -53 38 -65 38 -81 0 -22 -13 -23 -30 -3 -7 8 -25 15
-40 15 -15 0 -33 -7 -40 -15 -11 -13 -7 -15 24 -15 20 0 48 -8 62 -17 22 -14
27 -14 35 -2 26 41 -7 139 -47 139 -12 0 -13 -3 -2 -21z"/>
<path d="M687 919 c4 -23 0 -38 -17 -61 -28 -37 -17 -48 52 -48 38 0 50 5 67
26 32 41 25 47 -22 19 -44 -25 -77 -32 -77 -16 0 5 7 14 15 21 17 14 19 43 5
71 -16 29 -30 23 -23 -12z"/>
<path d="M498 852 c-20 -8 -62 -61 -55 -68 2 -3 22 6 42 21 21 14 49 25 63 25
24 0 24 -1 9 -18 -21 -23 -22 -75 -2 -92 13 -11 15 -7 15 27 0 21 7 49 16 62
10 14 13 26 7 32 -13 13 -74 20 -95 11z"/>
<path d="M610 785 c-17 -45 -12 -75 19 -106 41 -41 57 -36 26 8 -14 21 -25 48
-25 61 0 23 1 24 25 8 30 -20 54 -20 79 -1 21 16 18 18 -29 15 -18 -1 -42 8
-58 20 l-27 21 -10 -26z"/>
<path d="M867 751 c-9 -16 -17 -40 -17 -53 l0 -23 -19 24 c-12 16 -24 22 -35
18 -25 -10 -19 -41 19 -88 51 -65 43 -78 -16 -25 -56 51 -69 56 -69 27 0 -26
42 -75 96 -112 56 -38 73 -86 56 -160 -12 -51 -66 -128 -89 -129 -17 0 -16 3
6 42 27 46 33 138 9 138 -14 0 -56 -49 -77 -88 -21 -40 -1 -39 35 2 25 29 34
35 34 21 0 -24 -75 -96 -125 -119 -50 -24 -151 -32 -201 -16 -57 18 -104 57
-125 104 -53 116 14 236 131 236 78 0 120 -54 107 -138 -6 -34 -5 -35 8 -18
20 26 19 80 -2 123 -17 37 -102 100 -112 84 -3 -5 -22 -12 -41 -16 -54 -11
-101 -39 -145 -85 -36 -37 -38 -42 -23 -51 13 -7 18 -23 18 -57 1 -124 112
-228 240 -224 25 1 119 4 210 7 l165 5 -3 162 c-1 90 -4 217 -5 283 -1 66 2
128 7 138 15 30 -18 20 -37 -12z"/>
<path d="M104 741 c-2 -2 -4 -13 -4 -23 0 -15 8 -18 60 -18 56 0 60 2 60 23 0
20 -5 22 -56 22 -31 0 -58 -2 -60 -4z"/>
<path d="M320 679 c-30 -5 -101 -8 -158 -7 l-103 2 -5 -124 c-3 -87 0 -145 11
-196 19 -91 19 -187 0 -239 -18 -49 -18 -45 -2 -45 16 0 47 51 47 78 0 12 5
24 10 27 5 3 10 -3 10 -14 0 -24 13 -33 34 -25 25 9 19 42 -14 84 -46 58 -38
79 12 30 48 -45 83 -54 73 -17 -4 12 -25 39 -48 59 -114 101 -107 91 -107 156
0 75 8 96 54 146 43 48 58 41 28 -13 -22 -39 -31 -125 -14 -135 10 -6 64 48
81 81 21 41 11 47 -24 13 -50 -48 -55 -30 -6 23 150 163 431 97 431 -100 0
-88 -43 -145 -119 -158 -84 -14 -149 46 -138 129 5 37 4 39 -9 22 -40 -55 9
-164 89 -197 24 -10 32 -10 35 -1 2 7 16 12 30 12 36 0 98 34 145 78 39 38 48
62 22 62 -11 0 -15 12 -15 50 0 98 -54 175 -147 210 -56 21 -111 23 -203 9z"/>
<path d="M714 555 c-12 -30 28 -68 90 -86 69 -21 72 -5 6 28 -25 13 -55 34
-68 49 -19 22 -23 23 -28 9z"/>
<path d="M445 511 c-25 -11 -60 -49 -52 -57 3 -4 18 3 33 15 15 11 39 21 54
21 15 0 39 -10 54 -21 35 -28 47 -15 15 16 -27 27 -74 39 -104 26z"/>
<path d="M100 400 c0 -12 33 -36 68 -50 18 -7 41 -23 51 -36 11 -13 22 -24 25
-24 11 0 6 36 -7 55 -14 18 -137 68 -137 55z"/>
</g>
</svg>
