<?xml version="1.0" standalone="no"?>
<!DOCTYPE svg PUBLIC "-//W3C//DTD SVG 20010904//EN"
 "http://www.w3.org/TR/2001/REC-SVG-20010904/DTD/svg10.dtd">
  <svg
            version="1.0"
            xmlns="http://www.w3.org/2000/svg"
            width="95.000000pt"
            height="105.000000pt"
            viewBox="0 0 95.000000 105.000000"
            preserveAspectRatio="xMidYMid meet"
          >
            <g
              transform="translate(0.000000,105.000000) scale(0.100000,-0.100000)"
              fill="#000000"
              stroke="none"
            >
              <path
                fill="goldenrod"
                d="M592 989 c32 -53 38 -65 38 -81 0 -22 -13 -23 -30 -3 -7 8 -25 15
-40 15 -15 0 -33 -7 -40 -15 -11 -13 -7 -15 24 -15 20 0 48 -8 62 -17 22 -14
27 -14 35 -2 26 41 -7 139 -47 139 -12 0 -13 -3 -2 -21z"
              />
              <path
                fill="goldenrod"
                d="M687 919 c4 -23 0 -38 -17 -61 -28 -37 -17 -48 52 -48 38 0 50 5 67
26 32 41 25 47 -22 19 -44 -25 -77 -32 -77 -16 0 5 7 14 15 21 17 14 19 43 5
71 -16 29 -30 23 -23 -12z"
              />
              <path
                fill="goldenrod"
                d="M498 852 c-20 -8 -62 -61 -55 -68 2 -3 22 6 42 21 21 14 49 25 63 25
24 0 24 -1 9 -18 -21 -23 -22 -75 -2 -92 13 -11 15 -7 15 27 0 21 7 49 16 62
10 14 13 26 7 32 -13 13 -74 20 -95 11z"
              />
              <path
                fill="goldenrod"
                d="M610 785 c-17 -45 -12 -75 19 -106 41 -41 57 -36 26 8 -14 21 -25 48
-25 61 0 23 1 24 25 8 30 -20 54 -20 79 -1 21 16 18 18 -29 15 -18 -1 -42 8
-58 20 l-27 21 -10 -26z"
              />
              <path
                fill="rgb(73, 73, 35, 255)"
                d="M861 730 c-16 -36 -19 -38 -33 -23 -34 34 -50 -14 -23 -67 18 -35 18
-35 -28 -15 -45 19 -47 19 -47 0 0 -20 54 -80 96 -106 65 -40 83 -124 44 -203
-19 -38 -66 -84 -76 -74 -2 3 3 21 11 41 17 42 20 103 4 112 -13 9 -46 -21
-66 -58 -19 -38 -9 -46 22 -17 35 33 31 8 -5 -34 -50 -56 -121 -86 -204 -86
-110 1 -176 39 -211 122 -30 74 -13 153 44 201 26 22 43 27 85 27 63 0 91 -18
116 -74 15 -32 19 -36 19 -18 1 33 -23 74 -64 111 -36 31 -59 39 -69 22 -3 -5
-26 -12 -50 -15 -67 -10 -187 -111 -147 -124 6 -2 11 -21 11 -42 0 -54 34
-141 68 -174 16 -14 51 -35 79 -46 45 -17 69 -18 256 -13 l207 6 0 140 c0 78
-5 179 -11 226 -7 56 -8 109 -2 154 11 76 1 87 -26 27z"
              />
              <path
                fill="rgb(73, 73, 35, 255)"
                d="M105 730 c-12 -20 7 -30 61 -30 47 0 55 3 52 18 -2 13 -15 18 -55 20
-28 2 -54 -2 -58 -8z"
              />
              <path
                fill="rgb(73, 73, 35, 255)"
                d="M201 673 l-143 -4 7 -177 c4 -97 8 -228 8 -290 1 -61 4 -112 8 -112
4 0 12 15 20 33 7 17 13 33 15 35 1 2 11 -2 23 -10 17 -10 23 -10 33 0 11 11
9 21 -10 54 -12 23 -20 43 -18 46 3 2 20 -5 39 -17 41 -25 47 -26 47 -5 0 25
-39 73 -81 100 -47 29 -79 78 -79 119 0 51 21 107 50 137 32 32 56 38 45 11
-27 -66 -30 -143 -5 -143 14 0 70 79 70 98 0 11 -9 7 -30 -13 -18 -17 -30 -23
-30 -15 0 8 22 35 48 60 157 151 411 76 412 -121 0 -98 -68 -165 -158 -156
-50 5 -79 28 -100 77 -8 19 -17 30 -19 23 -2 -7 4 -31 15 -55 24 -54 91 -105
119 -89 10 5 41 17 69 26 55 17 134 81 134 108 0 10 -4 17 -9 17 -4 0 -11 27
-14 61 -7 85 -46 144 -116 181 -46 24 -63 28 -130 26 -42 -1 -141 -4 -220 -5z"
              />
              <path
                fill="rgb(73, 73, 35, 255)"
                d="M720 537 c0 -24 25 -44 74 -61 57 -19 56 -18 56 -8 0 4 -25 20 -55
35 -30 15 -55 31 -55 37 0 5 -4 10 -10 10 -5 0 -10 -6 -10 -13z"
              />
              <path
                fill="rgb(73, 73, 35, 255)"
                d="M430 495 c-10 -12 -7 -13 19 -5 18 5 44 5 62 0 26 -8 29 -7 19 5 -7
8 -29 15 -50 15 -21 0 -43 -7 -50 -15z"
              />
              <path
                fill="rgb(73, 73, 35, 255)"
                d="M110 385 c0 -2 19 -14 43 -26 23 -12 52 -31 65 -42 21 -20 22 -20 22
-1 0 31 -14 44 -65 59 -51 16 -65 18 -65 10z"
              />
            </g>
          </svg>

        